<svg xmlns="http://www.w3.org/2000/svg" xmlns:xlink="http://www.w3.org/1999/xlink" viewBox="0,0,256,256" width="96px" height="96px" fill-rule="nonzero"><g fill-opacity="0.90196" fill="#ffffff" fill-rule="nonzero" stroke="none" stroke-width="1" stroke-linecap="butt" stroke-linejoin="miter" stroke-miterlimit="10" stroke-dasharray="" stroke-dashoffset="0" font-family="none" font-weight="none" font-size="none" text-anchor="none" style="mix-blend-mode: normal"><g transform="scale(8,8)"><path d="M16,7.16797c-8.835,0 -16,3.76406 -16,8.41406c0,4.65 7.165,8.41602 16,8.41602c8.835,0 16,-3.76602 16,-8.41602c0,-4.65 -7.165,-8.41406 -16,-8.41406zM16,8.00781c8.57,0 15.16016,3.60922 15.16016,7.57422c0,3.965 -6.59516,7.57617 -15.16016,7.57617c-8.57,0 -15.16016,-3.61117 -15.16016,-7.57617c0,-3.965 6.59516,-7.57422 15.16016,-7.57422zM14.05664,9.67578l-1.61719,8.33984h1.80469l0.93164,-4.7793c1.469,0 2.07675,-0.05848 2.34375,0.22852c0.277,0.297 0.13505,0.62278 -0.62695,4.55078h1.83008c0.792,-4.061 1.14216,-4.9227 0.41016,-5.5957c-0.697,-0.643 -2.14122,-0.5293 -3.69922,-0.5293l0.42969,-2.21484zM6.48828,11.89648l-1.61914,8.3457h1.81641l0.42969,-2.2168c2.033,0 3.29589,0.14769 4.46289,-0.94531c1.291,-1.187 1.62803,-3.29942 0.70703,-4.35742c-0.48,-0.554 -1.25278,-0.82617 -2.30078,-0.82617zM20.67969,11.89648l-1.62109,8.3457h1.82031l0.42969,-2.2168c2.137,0 3.31989,0.12369 4.46289,-0.94531c1.291,-1.187 1.62803,-3.29942 0.70703,-4.35742c-0.48,-0.554 -1.25278,-0.82617 -2.30078,-0.82617zM9.33594,13.21094c1.13484,0.03197 1.78427,0.27226 1.50977,1.69726c-0.391,2.004 -1.7698,1.79688 -3.4668,1.79688l0.67773,-3.49219c0.47,0 0.90102,-0.01261 1.2793,-0.00195zM23.5293,13.21094c1.13625,0.03197 1.77841,0.27226 1.50391,1.69726c-0.396,2.033 -1.8148,1.79688 -3.4668,1.79688l0.67773,-3.49219c0.4725,0 0.90641,-0.01261 1.28516,-0.00195z"></path></g></g></svg>